if (_typeface_js && _typeface_js.loadFace) _typeface_js.loadFace({"glyphs":{"S":{"x_min":69.453125,"x_max":577.828125,"ha":647,"o":"m 445 612 q 411 688 443 661 q 325 716 379 716 q 236 687 270 716 q 201 612 201 658 q 230 544 201 575 q 341 475 259 513 q 455 411 411 441 q 527 350 500 380 q 566 284 555 319 q 577 212 577 250 q 505 51 577 111 q 309 -9 433 -8 q 134 50 195 -9 q 69 223 73 109 l 194 223 l 194 219 q 225 127 194 159 q 311 94 255 95 q 412 127 373 94 q 452 213 451 161 q 425 287 452 256 q 291 369 400 316 q 190 426 230 398 q 123 483 150 454 q 88 543 97 512 q 77 609 80 573 q 98 701 77 662 q 154 768 119 740 q 236 807 188 795 q 333 820 283 818 q 500 765 437 820 q 569 612 562 709 l 445 612 "},"/":{"x_min":69.453125,"x_max":709.78125,"ha":779,"o":"m 443 786 l 687 786 l 687 666 l 443 666 l 443 -91 l 334 -91 l 334 666 l 95 666 l 95 786 l 334 786 l 334 1090 l 443 1090 l 443 786 m 69 130 q 138 316 106 211 q 193 552 170 422 l 291 504 q 230 252 261 359 q 155 65 200 145 l 69 130 m 611 81 q 558 284 590 186 q 480 477 526 383 l 562 543 q 648 350 611 450 q 709 145 686 250 l 611 81 "},"K":{"x_min":69.453125,"x_max":695.890625,"ha":765,"o":"m 69 809 l 184 809 l 184 473 l 512 809 l 668 809 l 280 426 l 695 0 l 533 0 l 184 372 l 184 0 l 69 0 l 69 809 "},"7":{"x_min":69.453125,"x_max":640.328125,"ha":710,"o":"m 193 112 q 234 361 193 247 q 363 579 276 475 q 434 665 408 633 q 473 718 461 697 q 490 747 486 738 q 494 768 494 755 l 69 768 l 69 870 l 640 870 l 640 830 q 536 607 640 733 q 529 598 533 602 q 518 586 525 594 q 495 559 511 577 q 456 512 480 541 q 347 326 381 420 q 312 119 312 231 l 312 0 l 193 0 l 193 112 "},"d":{"x_min":69.453125,"x_max":552.828125,"ha":622,"o":"m 351 645 l 515 645 l 552 597 q 494 154 552 334 q 308 -136 436 -26 l 243 -54 q 402 186 351 37 q 455 543 454 334 l 162 543 l 162 281 l 69 281 l 69 645 l 259 645 l 259 868 l 351 868 l 351 645 "},",":{"x_min":69.453125,"x_max":536.15625,"ha":606,"o":"m 177 657 q 513 786 362 688 l 536 657 q 359 588 448 618 q 177 543 270 559 l 177 156 q 190 111 177 125 q 231 97 202 97 l 530 97 l 513 -22 l 204 -22 q 104 12 137 -22 q 69 125 70 47 l 69 976 l 177 976 l 177 657 "},"Y":{"x_min":69.453125,"x_max":655.609375,"ha":725,"o":"m 311 365 l 69 809 l 206 809 l 369 498 l 529 809 l 655 809 l 426 377 l 426 0 l 311 0 l 311 365 "},"E":{"x_min":69.453125,"x_max":562.546875,"ha":632,"o":"m 69 795 l 550 795 l 550 695 l 184 695 l 184 470 l 505 470 l 505 365 l 184 365 l 184 106 l 562 106 l 562 0 l 69 0 l 69 795 "},"y":{"x_min":69.453125,"x_max":666.71875,"ha":736,"o":"m 356 700 l 618 791 l 666 700 q 602 488 640 591 q 515 287 565 386 l 427 347 q 505 515 476 438 q 547 651 534 591 l 356 580 l 356 168 q 422 102 356 102 l 629 102 l 629 -16 l 368 -16 q 248 102 248 -16 l 248 543 l 86 483 l 69 612 l 248 662 l 248 1036 l 356 1036 l 356 700 "},"\"":{"x_min":69.453125,"x_max":672.28125,"ha":742,"o":"m 129 879 q 351 913 243 884 q 563 1004 459 943 l 618 900 q 534 848 575 866 q 450 819 494 830 l 450 597 l 672 597 l 672 477 l 450 477 q 265 -108 450 120 l 183 -5 q 304 204 266 86 q 341 477 341 322 l 69 477 l 69 597 l 341 597 l 341 791 q 243 776 291 780 q 145 770 194 772 l 129 879 "},"g":{"x_min":69.453125,"x_max":618.109375,"ha":688,"o":"m 345 493 l 454 -76 l 362 -113 l 265 450 l 101 363 l 69 466 l 248 548 l 194 819 l 286 851 l 330 586 l 573 705 l 618 634 l 498 270 l 427 330 l 504 575 l 345 493 "},"e":{"x_min":69.453125,"x_max":547.265625,"ha":617,"o":"m 102 688 l 498 688 l 498 586 l 351 586 l 351 156 l 547 156 l 547 54 l 69 54 l 69 156 l 259 156 l 259 586 l 102 586 l 102 688 "},"J":{"x_min":69.453125,"x_max":480.59375,"ha":550,"o":"m 184 261 l 184 218 q 204 120 184 147 q 273 93 223 94 q 365 206 365 93 l 365 809 l 480 809 l 480 244 q 430 50 480 111 q 275 -12 380 -11 q 69 215 69 -12 l 69 261 l 184 261 "},"|":{"x_min":69.453125,"x_max":569.484375,"ha":639,"o":"m 461 151 l 179 151 l 179 59 l 69 59 l 69 911 l 569 911 l 569 86 l 461 86 l 461 151 m 461 270 l 461 791 l 179 791 l 179 270 l 461 270 "},"^":{"x_min":69.453125,"x_max":688.9375,"ha":758,"o":"m 688 201 l 688 81 l 69 81 l 69 201 l 416 201 l 416 705 l 162 705 l 162 825 l 526 825 l 526 201 l 688 201 "},"q":{"x_min":69.453125,"x_max":607,"ha":676,"o":"m 75 662 l 75 780 l 275 780 l 275 1079 l 384 1079 l 384 786 l 607 786 l 607 395 q 604 241 607 320 q 584 98 601 162 q 530 -6 568 34 q 427 -48 493 -48 l 362 -48 l 356 76 l 411 76 q 454 86 438 76 q 476 125 469 95 q 481 163 479 137 q 487 250 484 190 q 491 408 490 309 q 493 666 493 506 l 379 666 q 311 250 368 431 q 145 -70 254 68 l 69 16 q 212 295 161 137 q 275 662 263 454 l 75 662 "},"b":{"x_min":69.453125,"x_max":575.046875,"ha":645,"o":"m 265 276 l 265 569 l 358 563 l 358 450 q 455 645 431 526 l 69 645 l 69 748 l 511 765 l 575 662 q 495 479 536 556 q 401 341 455 401 l 358 395 l 358 276 q 216 -108 358 33 l 145 -37 q 265 276 265 94 "},"D":{"x_min":69.453125,"x_max":561.15625,"ha":631,"o":"m 184 691 l 184 106 q 287 127 241 106 q 366 186 333 148 q 416 272 400 223 q 434 377 433 320 q 418 488 434 436 q 369 584 401 541 q 291 654 337 627 q 184 691 245 680 m 69 795 l 158 795 q 316 763 243 795 q 444 675 390 732 q 529 545 498 618 q 561 387 559 473 q 533 226 561 297 q 452 104 505 155 q 327 27 400 52 q 163 0 255 2 l 69 0 l 69 795 "},"z":{"x_min":69.453125,"x_max":605.609375,"ha":675,"o":"m 166 531 q 131 688 155 602 q 69 873 108 775 l 161 938 q 230 738 204 825 q 263 597 256 652 l 166 531 m 605 927 q 568 608 595 762 q 494 319 540 454 q 383 81 448 184 q 231 -87 318 -20 l 166 16 q 394 373 313 143 q 491 954 475 604 l 605 927 "},"w":{"x_min":69.453125,"x_max":683.390625,"ha":753,"o":"m 140 70 q 404 308 291 145 q 601 726 516 470 l 683 640 q 495 245 612 412 q 194 -43 379 79 l 140 70 m 69 634 l 129 732 q 286 543 245 615 l 222 450 q 145 550 183 504 q 69 634 108 595 m 151 954 l 211 1052 q 302 952 265 998 q 362 873 340 907 l 302 770 q 151 954 202 912 "},"$":{"x_min":69.453125,"x_max":672.28125,"ha":742,"o":"m 336 358 l 336 531 l 69 531 l 69 651 l 672 651 l 672 531 l 444 531 l 444 358 q 302 -119 444 63 l 216 -31 q 336 358 336 119 m 580 868 l 162 868 l 162 987 l 580 987 l 580 868 "},"\\":{"x_min":69.453125,"x_max":519.484375,"ha":589,"o":"m 519 -31 l 411 -31 l 411 48 l 69 48 l 69 168 l 411 168 l 411 461 l 91 461 l 91 580 l 411 580 l 411 840 l 69 840 l 69 959 l 519 959 l 519 -31 "},"~":{"x_min":69.453125,"x_max":594.484375,"ha":664,"o":"m 594 959 l 594 694 q 269 -54 594 195 l 204 54 q 486 694 486 227 l 486 840 l 177 840 l 177 488 l 69 488 l 69 959 l 594 959 "},"-":{"x_min":69.453125,"x_max":611.15625,"ha":681,"o":"m 69 802 l 69 922 l 536 938 l 611 851 q 477 272 587 490 q 172 -31 368 54 l 112 86 q 381 334 287 156 q 486 802 476 512 l 69 802 "},"Q":{"x_min":69.453125,"x_max":701.4375,"ha":771,"o":"m 416 177 l 254 391 l 400 391 l 479 288 q 495 415 495 348 q 454 636 495 554 q 344 718 412 718 q 231 645 269 718 q 194 429 194 573 q 236 226 194 298 q 350 152 277 154 q 386 158 370 152 q 416 177 401 163 m 562 177 l 701 0 l 554 0 l 486 90 q 416 55 450 66 q 348 44 383 44 q 219 79 272 44 q 131 170 166 113 q 84 298 97 227 q 69 440 72 369 q 83 579 69 511 q 131 702 97 647 q 218 790 166 758 q 345 823 269 822 q 473 787 420 823 q 559 694 526 751 q 608 568 593 637 q 623 427 623 498 q 608 293 623 352 q 562 177 593 233 "},"M":{"x_min":69.453125,"x_max":641.71875,"ha":711,"o":"m 69 809 l 256 809 l 355 452 l 454 809 l 641 809 l 641 0 l 526 0 l 526 694 l 400 263 l 305 263 l 179 697 l 179 0 l 69 0 l 69 809 "},"C":{"x_min":69.453125,"x_max":555.59375,"ha":625,"o":"m 552 622 l 431 622 q 336 711 425 711 q 230 633 265 711 q 194 408 195 555 q 229 172 194 252 q 336 91 263 91 q 406 115 380 91 q 434 181 433 138 l 555 181 q 488 38 544 90 q 344 -13 433 -12 q 140 95 211 -13 q 69 413 69 205 q 83 556 69 486 q 129 686 97 627 q 212 779 161 744 q 341 815 263 813 q 486 765 430 815 q 552 622 541 715 "},"[":{"x_min":69.453125,"x_max":584.765625,"ha":654,"o":"m 69 563 l 69 683 l 584 683 l 584 586 q 498 159 584 334 q 237 -125 412 -15 l 183 -22 q 476 563 466 143 l 69 563 m 123 879 l 123 998 l 536 998 l 536 879 l 123 879 "},"L":{"x_min":69.453125,"x_max":593.109375,"ha":663,"o":"m 69 802 l 184 802 l 184 106 l 593 106 l 593 0 l 69 0 l 69 802 "},"!":{"x_min":69.453125,"x_max":579.21875,"ha":649,"o":"m 215 -119 l 138 -31 q 283 140 226 48 q 372 341 340 231 q 308 427 340 390 q 248 493 276 465 l 297 597 q 355 531 329 563 q 411 466 381 500 q 443 604 431 533 q 454 759 454 675 l 280 759 q 150 412 247 616 l 69 477 q 186 769 140 612 q 252 1107 231 926 l 351 1069 q 333 972 341 1016 q 308 879 325 927 l 525 890 l 579 819 q 540 559 559 668 q 491 369 520 451 l 545 281 l 491 173 l 448 244 q 358 59 416 151 q 215 -119 300 -31 "},"{":{"x_min":69.453125,"x_max":736.171875,"ha":806,"o":"m 69 31 q 166 243 136 125 q 198 504 197 361 l 198 916 l 308 916 l 308 483 q 144 -70 308 177 l 69 31 m 377 976 l 486 976 l 486 190 q 587 333 541 244 q 670 543 633 422 l 736 444 q 612 190 687 302 q 431 -27 537 77 l 368 54 l 377 976 "},"X":{"x_min":69.453125,"x_max":666.71875,"ha":736,"o":"m 295 412 l 70 809 l 209 809 l 366 522 l 526 809 l 654 809 l 437 419 l 666 0 l 529 0 l 365 309 l 201 0 l 69 0 l 295 412 "},"P":{"x_min":69.453125,"x_max":615.328125,"ha":685,"o":"m 184 700 l 184 441 l 315 441 q 450 470 411 441 q 490 569 488 500 q 326 700 490 700 l 184 700 m 69 802 l 347 802 q 544 741 473 802 q 615 570 615 680 q 547 400 615 462 q 361 337 479 337 l 184 337 l 184 0 l 69 0 l 69 802 "},"%":{"x_min":69.453125,"x_max":454.203125,"ha":524,"o":"m 400 319 q 277 436 333 390 q 177 509 222 481 l 177 -54 l 69 -54 l 69 1041 l 177 1041 l 177 651 q 334 543 265 597 q 454 433 404 488 l 400 319 "},"#":{"x_min":69.453125,"x_max":655.609375,"ha":725,"o":"m 248 900 l 330 965 q 380 825 356 898 q 422 662 404 751 l 330 597 q 295 759 313 684 q 248 900 277 834 m 655 911 q 551 286 651 533 q 248 -91 451 38 l 183 16 q 541 938 530 209 l 655 911 m 151 884 q 201 745 177 825 q 248 569 225 666 l 156 504 q 119 675 140 597 q 69 819 98 752 l 151 884 "},"_":{"x_min":69.453125,"x_max":661.15625,"ha":731,"o":"m 69 575 l 661 575 l 661 472 l 69 472 l 69 575 "},"+":{"x_min":69.453125,"x_max":730.609375,"ha":800,"o":"m 69 119 q 231 770 188 380 l 334 737 q 259 323 302 494 q 161 37 216 152 l 69 119 m 622 59 q 544 463 590 283 q 437 786 498 644 l 530 851 q 655 486 607 670 q 730 102 704 301 l 622 59 "},")":{"x_min":69.453125,"x_max":693.109375,"ha":763,"o":"m 416 857 l 525 873 l 579 780 q 500 629 538 697 q 416 493 461 561 l 416 -97 l 308 -97 l 308 358 q 230 266 276 309 q 129 184 184 223 l 69 281 q 275 476 183 358 q 444 754 366 594 l 123 722 l 112 840 l 308 851 l 308 1101 l 416 1101 l 416 857 m 509 520 q 615 390 569 450 q 693 276 661 330 l 629 179 q 529 327 575 266 q 444 429 483 388 l 509 520 "},"'":{"x_min":69.453125,"x_max":655.609375,"ha":725,"o":"m 655 250 l 655 130 l 69 130 l 69 250 l 655 250 m 569 868 l 569 748 l 151 748 l 151 868 l 569 868 "},"}":{"x_min":69.453125,"x_max":595.875,"ha":665,"o":"m 595 526 q 430 184 541 323 q 134 -43 319 45 l 69 37 l 69 970 l 183 970 l 183 119 q 519 629 400 218 l 595 526 "},"T":{"x_min":69.453125,"x_max":612.546875,"ha":682,"o":"m 283 697 l 69 697 l 69 802 l 612 802 l 612 697 l 398 697 l 398 0 l 283 0 l 283 697 "},"a":{"x_min":69.453125,"x_max":605.609375,"ha":675,"o":"m 545 976 l 605 905 q 501 262 602 502 q 194 -70 400 22 l 134 31 q 356 225 276 98 q 459 537 437 351 l 95 537 l 95 657 l 476 657 q 486 726 483 695 q 488 787 488 757 q 488 812 488 800 q 486 840 488 826 l 69 840 l 69 959 l 545 976 "},"=":{"x_min":69.453125,"x_max":556.984375,"ha":626,"o":"m 426 1036 l 540 993 q 491 730 516 843 q 437 526 466 618 q 500 448 470 488 q 556 363 529 408 l 502 238 l 394 395 q 288 162 351 269 q 138 -37 226 55 l 69 59 q 215 259 156 151 q 312 493 273 368 q 263 548 283 526 q 227 588 244 570 q 201 619 211 607 q 177 645 191 632 l 237 754 q 298 690 269 722 q 356 623 327 658 q 397 802 377 700 q 426 1036 416 905 "},"N":{"x_min":69.453125,"x_max":605.609375,"ha":675,"o":"m 69 809 l 208 809 l 495 205 l 495 809 l 605 809 l 605 0 l 472 0 l 179 609 l 179 0 l 69 0 l 69 809 "},"2":{"x_min":69.453125,"x_max":600.046875,"ha":670,"o":"m 422 420 q 559 273 520 354 q 600 58 600 193 q 600 26 600 37 q 598 6 600 16 l 83 6 l 83 112 l 468 112 l 468 137 q 461 193 468 168 q 437 244 454 218 q 391 293 420 270 q 319 347 362 315 l 238 400 q 108 516 147 459 q 69 645 69 573 q 144 819 69 755 q 351 884 219 883 q 475 869 418 884 q 583 822 531 854 l 583 686 q 450 761 506 737 q 345 784 393 784 q 287 775 313 784 q 240 748 261 765 q 209 709 219 732 q 198 659 200 687 q 225 575 198 612 q 323 487 251 537 l 422 420 l 422 420 "},"j":{"x_min":69.453125,"x_max":552.828125,"ha":622,"o":"m 552 737 q 533 477 551 604 q 477 241 515 351 q 381 44 440 131 q 243 -97 323 -43 l 179 -11 q 387 268 320 76 q 455 754 454 459 l 552 737 m 145 384 l 69 651 l 145 700 l 222 429 l 145 384 m 293 461 l 216 722 l 287 765 l 362 509 l 293 461 "},"Z":{"x_min":69.453125,"x_max":550.046875,"ha":620,"o":"m 69 91 l 377 691 l 73 691 l 73 795 l 511 795 l 511 700 l 206 105 l 550 105 l 550 0 l 69 0 l 69 91 "},"u":{"x_min":69.453125,"x_max":558.375,"ha":628,"o":"m 450 205 l 450 711 l 69 711 l 69 830 l 558 830 l 558 16 l 450 16 l 450 86 l 69 86 l 69 205 l 450 205 "},"1":{"x_min":69.453125,"x_max":406.984375,"ha":476,"o":"m 280 732 l 69 547 l 69 701 l 275 870 l 406 870 l 406 0 l 280 0 l 280 732 "},"k":{"x_min":69.453125,"x_max":644.5,"ha":714,"o":"m 644 640 q 459 204 590 368 q 106 -22 329 40 l 75 108 q 551 726 452 183 l 644 640 m 302 716 l 226 618 q 154 740 194 677 q 69 862 113 802 l 140 959 q 234 833 194 895 q 302 716 275 770 "},"<":{"x_min":69.453125,"x_max":713.953125,"ha":783,"o":"m 530 537 q 630 304 584 429 q 713 31 676 179 l 611 -27 l 573 119 l 95 48 l 69 173 l 177 184 q 219 419 200 306 q 256 641 238 531 q 291 855 275 751 q 323 1069 308 959 l 443 1019 q 358 581 397 783 q 280 190 319 380 l 540 222 q 500 345 520 288 q 454 466 479 402 l 530 537 "},"t":{"x_min":69.453125,"x_max":698.671875,"ha":768,"o":"m 227 -27 q 370 231 319 65 q 438 640 422 398 l 259 640 q 216 490 243 556 q 151 363 190 423 l 69 433 q 169 691 129 533 q 237 1079 209 850 l 341 1047 q 323 927 336 1001 q 291 759 311 854 l 698 759 l 698 640 l 541 640 q 468 197 525 383 q 313 -102 411 11 l 227 -27 "},"W":{"x_min":69.453125,"x_max":644.5,"ha":714,"o":"m 69 809 l 188 809 q 200 475 190 627 q 231 186 209 322 l 309 494 l 413 494 l 495 186 q 511 338 505 269 q 522 479 516 408 q 529 629 527 550 q 534 809 530 708 l 644 809 q 637 590 641 693 q 625 390 633 487 q 601 197 616 293 q 562 0 586 101 l 441 0 l 359 294 l 280 0 l 156 0 q 116 194 131 100 q 91 387 101 288 q 77 587 81 486 q 69 809 73 688 "},"v":{"x_min":69.453125,"x_max":713.953125,"ha":783,"o":"m 568 722 l 713 722 l 713 602 l 568 602 l 568 526 q 512 165 568 318 q 334 -97 456 12 l 258 0 q 411 222 362 91 q 459 520 459 352 l 459 602 l 306 602 l 306 315 l 198 315 l 198 602 l 69 602 l 69 722 l 198 722 l 198 1019 l 306 1019 l 306 722 l 459 722 l 459 1063 l 568 1063 l 568 722 "},">":{"x_min":69.453125,"x_max":666.71875,"ha":736,"o":"m 644 119 l 629 0 l 438 0 q 322 34 362 0 q 281 145 281 69 l 281 450 l 69 450 l 69 569 l 281 569 l 281 819 l 123 819 l 123 938 l 595 938 l 595 819 l 390 819 l 390 569 l 666 569 l 666 450 l 390 450 l 390 190 q 405 136 390 151 q 455 119 420 120 l 644 119 "},"s":{"x_min":69.453125,"x_max":616.71875,"ha":686,"o":"m 243 -125 l 177 -27 q 493 743 459 244 l 302 743 q 151 395 258 559 l 69 472 q 200 741 152 586 q 269 1095 247 897 l 379 1058 q 358 975 368 1025 q 329 862 348 925 l 552 879 l 616 786 q 494 247 587 470 q 243 -125 401 23 "},"B":{"x_min":69.453125,"x_max":648.65625,"ha":718,"o":"m 186 690 l 186 466 l 325 466 q 466 491 425 466 q 509 575 508 516 q 468 662 509 634 q 329 690 426 690 l 186 690 m 186 362 l 186 105 l 325 105 q 476 136 429 105 q 523 234 523 166 q 336 362 523 362 l 186 362 m 69 795 l 355 795 q 556 740 486 795 q 629 579 627 684 q 527 415 629 456 q 648 233 648 372 q 623 119 648 163 q 555 48 598 75 q 455 11 512 22 q 334 0 398 0 l 69 0 l 69 795 "},"?":{"x_min":69.453125,"x_max":725.0625,"ha":795,"o":"m 497 438 q 562 593 536 522 q 601 732 588 663 l 388 634 l 491 -65 l 383 -108 l 291 580 l 90 493 l 69 607 l 275 694 l 226 1025 l 323 1047 l 373 737 l 655 879 l 725 770 q 651 547 684 648 q 573 358 618 445 l 497 438 "},"H":{"x_min":69.453125,"x_max":579.21875,"ha":649,"o":"m 69 809 l 184 809 l 184 470 l 463 470 l 463 809 l 579 809 l 579 0 l 463 0 l 463 365 l 184 365 l 184 0 l 69 0 l 69 809 "},"c":{"x_min":69.453125,"x_max":525.046875,"ha":594,"o":"m 69 265 q 438 840 306 472 l 525 780 q 506 729 519 759 q 475 661 494 698 q 436 586 455 623 q 395 509 416 548 l 395 -102 l 302 -102 l 302 375 q 222 270 265 319 q 129 173 179 222 l 69 265 "},"&":{"x_min":69.453125,"x_max":694.5,"ha":764,"o":"m 444 716 l 694 716 l 694 597 l 444 597 l 444 433 q 395 127 444 265 q 243 -113 347 -9 l 173 -22 q 336 466 336 144 l 336 597 l 69 597 l 69 716 l 336 716 l 336 1052 l 444 1052 l 444 716 "},"I":{"x_min":69.453125,"x_max":477.8125,"ha":547,"o":"m 69 106 l 215 106 l 215 693 l 94 693 l 94 795 l 452 795 l 452 693 l 331 693 l 331 106 l 477 106 l 477 0 l 69 0 l 69 106 "},"G":{"x_min":69.453125,"x_max":619.5,"ha":689,"o":"m 329 431 l 619 431 l 619 34 q 490 -2 543 8 q 390 -13 437 -13 q 154 95 238 -13 q 69 408 69 205 q 91 580 69 504 q 155 709 113 657 q 258 791 197 762 q 394 819 319 820 q 544 776 486 819 q 619 654 602 733 l 498 654 q 455 701 480 684 q 397 718 430 718 q 194 409 194 718 q 391 93 194 93 q 504 119 438 93 l 504 326 l 329 326 l 329 431 "},"(":{"x_min":69.453125,"x_max":627.828125,"ha":697,"o":"m 123 802 l 118 922 l 525 959 l 590 868 q 536 634 566 741 q 454 423 505 527 q 541 281 498 356 q 627 119 584 206 l 541 37 q 463 194 498 130 q 400 298 429 258 q 294 131 362 215 q 129 -43 226 48 l 69 70 q 226 225 161 141 q 334 406 291 308 q 248 518 286 473 q 183 586 211 562 l 243 683 q 320 600 286 640 q 384 520 355 559 q 437 682 416 604 q 465 836 458 759 l 123 802 "},"U":{"x_min":69.453125,"x_max":609.765625,"ha":679,"o":"m 69 809 l 184 809 l 184 291 q 193 197 184 234 q 220 137 201 159 q 269 105 240 115 q 341 95 298 95 q 462 138 426 95 q 498 290 498 181 l 498 809 l 609 809 l 609 272 q 543 56 609 125 q 331 -12 476 -11 q 218 9 266 -12 q 136 69 169 31 q 86 159 102 106 q 69 270 69 212 l 69 809 "},"F":{"x_min":69.453125,"x_max":487.53125,"ha":557,"o":"m 69 802 l 487 802 l 487 701 l 184 701 l 184 476 l 433 476 l 433 370 l 184 370 l 184 0 l 69 0 l 69 802 "},"r":{"x_min":69.453125,"x_max":708.390625,"ha":778,"o":"m 318 700 l 127 657 l 118 776 l 306 813 l 275 1069 l 366 1090 l 400 840 l 600 890 l 611 770 l 416 726 l 443 466 l 698 526 l 708 412 l 454 358 l 508 -76 l 400 -102 l 351 336 l 79 276 l 69 395 l 345 450 l 318 700 "},":":{"x_min":69.453125,"x_max":666.71875,"ha":736,"o":"m 254 537 q 312 458 286 498 q 368 375 338 418 q 456 559 416 462 q 525 765 497 657 l 80 732 l 69 851 l 595 900 l 666 802 q 556 523 615 655 q 427 270 498 391 q 484 165 459 216 q 530 70 509 113 l 444 -22 q 308 258 373 141 q 188 438 243 375 l 254 537 "},"x":{"x_min":69.453125,"x_max":683.390625,"ha":753,"o":"m 444 819 l 156 780 l 140 905 l 498 954 l 580 851 q 513 648 545 738 q 450 477 481 558 q 584 255 525 356 q 683 65 644 154 l 595 -31 q 487 200 536 102 q 395 358 438 297 q 275 130 336 227 q 145 -37 213 33 l 69 48 q 298 393 206 202 q 444 819 390 583 "},"*":{"x_min":69.453125,"x_max":556.984375,"ha":626,"o":"m 150 -11 l 69 97 q 437 1009 362 415 l 556 965 q 393 397 493 636 q 150 -11 293 158 "},"V":{"x_min":69.453125,"x_max":682,"ha":751,"o":"m 69 809 l 193 809 l 377 111 l 559 809 l 682 809 l 458 0 l 293 0 l 69 809 "},"h":{"x_min":69.453125,"x_max":600.046875,"ha":670,"o":"m 133 552 l 133 657 l 443 657 l 443 145 l 600 145 l 600 43 l 69 43 l 69 145 l 351 145 l 351 552 l 133 552 "},"0":{"x_min":69.453125,"x_max":655.609375,"ha":725,"o":"m 655 434 q 636 194 655 287 q 576 48 616 101 q 500 2 551 18 q 362 -12 448 -12 q 225 2 275 -12 q 147 51 175 18 q 69 434 69 150 q 88 675 69 577 q 147 820 108 772 q 223 869 173 854 q 362 884 273 884 q 565 834 512 884 q 631 691 609 793 q 655 434 654 590 m 362 94 q 447 101 420 94 q 487 125 473 108 q 530 434 530 176 q 527 565 530 509 q 516 663 525 620 l 281 100 q 362 94 308 94 m 194 434 q 197 315 194 368 q 205 220 200 262 l 430 779 q 362 783 402 783 q 272 775 300 783 q 231 744 244 766 q 204 633 212 708 q 194 434 195 558 "},".":{"x_min":69.453125,"x_max":725.0625,"ha":795,"o":"m 297 836 q 331 850 311 850 q 372 836 354 850 q 411 780 387 820 q 465 684 434 740 q 529 568 495 629 q 597 447 562 506 q 663 340 632 387 q 725 265 695 293 l 644 156 q 487 420 561 294 q 345 666 413 547 q 334 677 338 677 q 323 666 327 677 q 150 319 248 505 l 69 412 q 100 461 79 425 q 145 544 120 497 q 195 643 170 591 q 244 736 220 694 q 280 807 268 777 q 297 836 293 836 "},"f":{"x_min":69.453125,"x_max":605.609375,"ha":675,"o":"m 422 629 l 605 629 l 605 526 l 422 526 l 422 0 q 312 -108 422 -108 l 263 -108 l 248 -5 l 302 -5 q 323 2 318 -5 q 329 27 329 11 l 329 358 q 248 166 297 254 q 134 -5 200 79 l 69 70 q 206 281 150 168 q 302 526 263 395 l 79 526 l 79 629 l 329 629 l 329 873 l 422 873 l 422 629 "},";":{"x_min":69.453125,"x_max":530.59375,"ha":600,"o":"m 465 363 q 276 469 368 430 q 102 526 184 508 l 123 651 q 336 583 244 623 q 498 488 427 543 l 465 363 m 69 173 l 102 298 q 320 211 216 265 q 530 81 425 156 l 487 -43 q 268 91 373 37 q 69 173 162 145 m 102 873 l 123 998 q 312 947 220 982 q 493 862 404 912 l 454 743 q 268 829 356 797 q 102 873 179 861 "},"i":{"x_min":69.453125,"x_max":455.59375,"ha":525,"o":"m 69 102 l 362 102 l 362 330 l 86 330 l 86 433 l 362 433 l 362 651 l 69 651 l 69 754 l 455 754 l 455 -54 l 362 -54 l 362 0 l 69 0 l 69 102 "},"A":{"x_min":69.453125,"x_max":658.390625,"ha":728,"o":"m 358 709 l 266 341 l 450 341 l 358 709 m 281 815 l 444 815 l 658 0 l 533 0 l 476 234 l 240 234 l 181 0 l 69 0 l 281 815 "},"6":{"x_min":69.453125,"x_max":655.609375,"ha":725,"o":"m 240 147 q 365 98 286 98 q 487 147 444 98 q 530 280 530 195 q 486 405 530 359 q 362 452 441 451 q 240 405 286 452 q 194 276 194 358 q 240 147 194 195 m 419 877 l 577 877 q 425 725 497 807 q 277 537 352 643 q 330 552 304 548 q 386 558 356 556 q 493 537 444 558 q 579 477 541 516 q 634 390 616 438 q 655 281 652 341 q 634 163 655 216 q 575 72 613 111 q 483 12 536 33 q 365 -9 430 -8 q 244 11 298 -9 q 150 72 190 31 q 90 168 109 112 q 69 294 70 223 q 154 566 69 425 q 419 877 238 708 "},"n":{"x_min":69.453125,"x_max":611.15625,"ha":681,"o":"m 248 -22 q 438 279 375 98 q 502 705 502 459 l 177 705 l 177 384 l 69 384 l 69 825 l 280 825 l 280 1101 l 388 1101 l 388 825 l 611 825 l 611 677 q 538 222 611 422 q 313 -125 466 22 l 248 -22 "},"O":{"x_min":69.453125,"x_max":647.28125,"ha":717,"o":"m 238 179 q 358 95 283 95 q 477 179 433 95 q 522 408 522 262 q 477 636 522 554 q 358 719 433 718 q 238 637 283 719 q 194 408 194 555 q 238 179 194 262 m 565 707 q 647 405 647 588 q 565 104 647 222 q 358 -12 483 -12 q 151 104 231 -12 q 69 405 69 222 q 151 707 69 588 q 358 823 231 823 q 565 707 483 823 "},"3":{"x_min":69.453125,"x_max":623.65625,"ha":693,"o":"m 69 826 q 286 870 190 870 q 427 851 365 870 q 533 794 490 832 q 600 705 576 757 q 623 587 623 654 q 556 405 623 473 q 368 330 490 337 l 591 106 l 591 -12 l 69 -12 l 69 93 l 440 93 l 206 331 l 206 419 q 234 418 220 419 q 251 416 248 416 q 436 455 377 416 q 495 580 494 494 q 441 712 495 663 q 294 762 387 761 q 181 748 236 762 q 69 701 127 734 l 69 826 "},"]":{"x_min":69.453125,"x_max":486.15625,"ha":556,"o":"m 377 1041 l 486 1041 l 486 472 q 248 -113 486 70 l 177 -16 q 329 184 281 59 q 377 477 376 309 l 377 1041 m 69 993 l 177 993 l 177 369 l 69 369 l 69 993 "},"m":{"x_min":69.453125,"x_max":601.4375,"ha":671,"o":"m 69 384 q 315 672 204 505 q 508 1063 426 838 l 601 970 q 572 909 587 944 q 537 833 556 875 q 493 745 518 791 q 437 651 468 700 l 437 -91 l 329 -91 l 329 498 q 234 376 286 431 q 123 270 183 320 l 69 384 "},"9":{"x_min":69.453125,"x_max":655.609375,"ha":725,"o":"m 362 782 q 241 733 287 782 q 194 605 195 684 q 240 476 194 525 q 362 427 286 427 q 486 473 441 427 q 530 600 530 519 q 486 734 530 687 q 362 782 441 782 m 411 0 q 256 172 320 91 q 150 323 193 252 q 88 459 106 394 q 69 586 70 525 q 147 804 69 725 q 365 884 225 883 q 481 865 429 884 q 575 807 534 845 q 634 716 615 768 q 655 598 654 665 q 636 488 655 538 q 580 400 616 438 q 494 341 544 361 q 384 320 444 322 q 277 343 326 320 q 402 181 330 266 q 576 0 475 97 l 411 0 l 411 0 "},"l":{"x_min":69.453125,"x_max":672.28125,"ha":742,"o":"m 541 840 l 75 825 l 69 944 l 590 970 l 672 868 q 619 737 644 795 q 569 629 594 679 q 518 537 544 579 q 465 461 491 495 l 416 515 q 370 161 416 313 q 227 -97 325 8 l 151 -5 q 269 208 231 81 q 308 504 306 334 l 308 748 l 416 748 l 416 586 q 494 718 465 657 q 541 840 523 779 "},"8":{"x_min":69.453125,"x_max":655.609375,"ha":725,"o":"m 362 423 q 233 338 270 380 q 194 237 195 297 q 238 133 194 170 q 362 94 283 95 q 486 131 441 94 q 530 237 530 169 q 493 337 530 295 q 362 423 455 379 m 362 545 q 459 606 426 572 q 494 680 493 641 q 459 752 494 726 q 362 779 425 779 q 265 752 300 779 q 230 683 230 726 q 263 606 230 641 q 362 545 297 572 m 473 486 q 613 373 572 433 q 655 225 655 313 q 580 50 655 112 q 362 -12 505 -12 q 145 51 220 -12 q 69 233 70 115 q 111 373 69 315 q 251 486 152 431 q 111 687 111 575 q 177 830 111 779 q 362 883 244 882 q 545 832 479 883 q 613 693 612 780 q 473 486 613 575 "},"p":{"x_min":69.453125,"x_max":709.78125,"ha":779,"o":"m 491 791 l 709 791 l 709 672 l 491 672 l 491 11 q 465 -75 491 -48 q 377 -102 438 -101 l 302 -102 l 286 16 l 351 16 q 375 23 368 16 q 383 54 381 30 l 383 461 q 281 226 340 330 q 138 37 223 122 l 69 130 q 351 672 273 345 l 90 672 l 90 791 l 383 791 l 383 1084 l 491 1084 l 491 791 "},"4":{"x_min":69.453125,"x_max":520.875,"ha":590,"o":"m 404 195 l 69 195 l 69 325 l 329 877 l 454 877 l 183 302 l 404 302 l 404 486 l 520 486 l 520 0 l 404 0 l 404 195 "},"R":{"x_min":69.453125,"x_max":609.765625,"ha":679,"o":"m 184 700 l 184 443 l 273 443 q 443 566 443 443 q 402 668 443 637 q 270 700 362 698 l 184 700 m 69 802 l 286 802 q 568 572 568 802 q 526 430 568 484 q 401 356 484 376 l 609 0 l 470 0 l 283 337 l 184 337 l 184 0 l 69 0 l 69 802 "},"o":{"x_min":69.453125,"x_max":655.609375,"ha":725,"o":"m 69 108 l 69 227 l 313 227 l 313 759 l 123 759 l 123 879 l 612 879 l 612 759 l 422 759 l 422 227 l 655 227 l 655 108 l 69 108 "},"5":{"x_min":69.453125,"x_max":562.546875,"ha":632,"o":"m 559 470 q 476 480 512 477 q 413 483 440 483 q 252 438 309 483 q 194 313 195 394 q 277 154 194 209 q 516 97 361 98 q 544 97 534 97 q 562 98 554 97 l 562 -9 l 529 -9 q 191 75 313 -9 q 69 306 69 159 q 154 509 69 433 q 373 587 240 587 q 409 587 398 587 q 433 586 420 587 l 423 766 l 95 766 l 95 870 l 531 870 l 559 470 "}}}
